<mxfile host="Electron" agent="Mozilla/5.0 (Windows NT 10.0; Win64; x64) AppleWebKit/537.36 (KHTML, like Gecko) draw.io/26.0.9 Chrome/128.0.6613.186 Electron/32.2.5 Safari/537.36" version="26.0.9">
  <diagram name="Seite-1" id="djKUNdHpDmF1BdN_acbi">
    <mxGraphModel dx="2562" dy="2364" grid="1" gridSize="10" guides="1" tooltips="1" connect="1" arrows="1" fold="1" page="1" pageScale="1" pageWidth="827" pageHeight="1169" math="0" shadow="0">
      <root>
        <mxCell id="0" />
        <mxCell id="1" parent="0" />
        <mxCell id="YF07dS71Wtw1GLsMtcsT-3" value="&lt;font style=&quot;font-size: 15px;&quot;&gt;&lt;b&gt;Movies&lt;/b&gt;&lt;/font&gt;" style="rounded=0;whiteSpace=wrap;html=1;" parent="1" vertex="1">
          <mxGeometry x="120" y="80" width="200" height="30" as="geometry" />
        </mxCell>
        <mxCell id="YF07dS71Wtw1GLsMtcsT-4" value="&lt;font style=&quot;font-size: 15px;&quot;&gt;- title (TEXT, &lt;i&gt;NOT NULL&lt;/i&gt;)&lt;/font&gt;&lt;div&gt;&lt;font style=&quot;font-size: 15px;&quot;&gt;- path_to_cover_img&lt;/font&gt;&lt;/div&gt;&lt;div&gt;&lt;font style=&quot;font-size: 15px;&quot;&gt;&amp;nbsp; (TEXT)&lt;br&gt;&lt;/font&gt;&lt;div&gt;&lt;font style=&quot;font-size: 15px;&quot;&gt;- year_of_release (INT)&lt;/font&gt;&lt;/div&gt;&lt;div&gt;&lt;font style=&quot;font-size: 15px;&quot;&gt;- runtime_in_minutes (&lt;/font&gt;&lt;span style=&quot;font-size: 15px; background-color: transparent; color: light-dark(rgb(0, 0, 0), rgb(255, 255, 255));&quot;&gt;INT)&lt;/span&gt;&lt;/div&gt;&lt;/div&gt;" style="rounded=0;whiteSpace=wrap;html=1;align=left;spacingLeft=12;" parent="1" vertex="1">
          <mxGeometry x="120" y="110" width="200" height="110" as="geometry" />
        </mxCell>
        <mxCell id="YF07dS71Wtw1GLsMtcsT-6" value="&lt;span style=&quot;font-size: 15px;&quot;&gt;- streaming_platform&lt;/span&gt;&lt;div&gt;&lt;span style=&quot;font-size: 15px;&quot;&gt;&amp;nbsp; (TEXT)&lt;/span&gt;&lt;/div&gt;" style="rounded=0;whiteSpace=wrap;html=1;align=left;spacingLeft=12;" parent="1" vertex="1">
          <mxGeometry x="120" y="220" width="200" height="50" as="geometry" />
        </mxCell>
        <mxCell id="YF07dS71Wtw1GLsMtcsT-7" value="&lt;span style=&quot;font-size: 15px;&quot;&gt;- added_by&lt;/span&gt;&lt;div&gt;&lt;span style=&quot;font-size: 15px;&quot;&gt;&amp;nbsp; (&lt;i&gt;FK_VIEWERS&lt;/i&gt;)&lt;/span&gt;&lt;/div&gt;" style="rounded=0;whiteSpace=wrap;html=1;align=left;spacingLeft=12;" parent="1" vertex="1">
          <mxGeometry x="120" y="270" width="200" height="50" as="geometry" />
        </mxCell>
        <mxCell id="YF07dS71Wtw1GLsMtcsT-8" value="&lt;font style=&quot;font-size: 15px;&quot;&gt;&lt;b&gt;Ratings&lt;/b&gt;&lt;/font&gt;" style="rounded=0;whiteSpace=wrap;html=1;" parent="1" vertex="1">
          <mxGeometry x="-390" y="80" width="180" height="30" as="geometry" />
        </mxCell>
        <mxCell id="YF07dS71Wtw1GLsMtcsT-9" value="&lt;span style=&quot;font-size: 15px;&quot;&gt;- movie&lt;/span&gt;&lt;div&gt;&lt;span style=&quot;font-size: 15px;&quot;&gt;&amp;nbsp; (&lt;i&gt;FK_MOVIES&lt;/i&gt;)&lt;/span&gt;&lt;div&gt;&lt;span style=&quot;font-size: 15px;&quot;&gt;- rater&lt;/span&gt;&lt;/div&gt;&lt;div&gt;&lt;span style=&quot;font-size: 15px;&quot;&gt;&amp;nbsp; (&lt;i&gt;FK_VIEWERS&lt;/i&gt;)&lt;/span&gt;&lt;/div&gt;&lt;div&gt;&lt;span style=&quot;font-size: 15px;&quot;&gt;- stars&lt;/span&gt;&lt;/div&gt;&lt;div&gt;&lt;span style=&quot;font-size: 15px;&quot;&gt;&amp;nbsp; (FLOAT, &lt;i&gt;NOT NULL&lt;/i&gt;)&lt;/span&gt;&lt;/div&gt;&lt;div&gt;&lt;span style=&quot;font-size: 15px;&quot;&gt;- rank (INT)&lt;/span&gt;&lt;/div&gt;&lt;/div&gt;" style="rounded=0;whiteSpace=wrap;html=1;align=left;spacingLeft=12;" parent="1" vertex="1">
          <mxGeometry x="-390" y="110" width="180" height="150" as="geometry" />
        </mxCell>
        <mxCell id="YF07dS71Wtw1GLsMtcsT-24" value="" style="edgeStyle=entityRelationEdgeStyle;fontSize=12;html=1;endArrow=ERzeroToMany;startArrow=ERmandOne;rounded=0;exitX=0;exitY=0.25;exitDx=0;exitDy=0;entryX=1;entryY=0.25;entryDx=0;entryDy=0;" parent="1" source="YF07dS71Wtw1GLsMtcsT-3" target="YF07dS71Wtw1GLsMtcsT-8" edge="1">
          <mxGeometry width="100" height="100" relative="1" as="geometry">
            <mxPoint x="340" y="470" as="sourcePoint" />
            <mxPoint x="440" y="370" as="targetPoint" />
          </mxGeometry>
        </mxCell>
        <mxCell id="YF07dS71Wtw1GLsMtcsT-34" value="&lt;font style=&quot;font-size: 15px;&quot;&gt;&lt;b&gt;Oscars&lt;/b&gt;&lt;/font&gt;" style="rounded=0;whiteSpace=wrap;html=1;" parent="1" vertex="1">
          <mxGeometry x="420" y="80" width="170" height="30" as="geometry" />
        </mxCell>
        <mxCell id="YF07dS71Wtw1GLsMtcsT-35" value="&lt;div&gt;&lt;span style=&quot;font-size: 15px;&quot;&gt;- movie&lt;/span&gt;&lt;/div&gt;&lt;div&gt;&lt;span style=&quot;font-size: 15px;&quot;&gt;&amp;nbsp; (&lt;i&gt;FK_MOVIES&lt;/i&gt;)&lt;/span&gt;&lt;/div&gt;&lt;div&gt;&lt;div&gt;&lt;div&gt;&lt;span style=&quot;font-size: 15px;&quot;&gt;- category&lt;/span&gt;&lt;/div&gt;&lt;div&gt;&lt;span style=&quot;font-size: 15px;&quot;&gt;&amp;nbsp; (TEXT, &lt;i&gt;NOT NULL&lt;/i&gt;)&lt;/span&gt;&lt;/div&gt;&lt;/div&gt;&lt;/div&gt;" style="rounded=0;whiteSpace=wrap;html=1;align=left;spacingLeft=12;" parent="1" vertex="1">
          <mxGeometry x="420" y="110" width="170" height="90" as="geometry" />
        </mxCell>
        <mxCell id="YF07dS71Wtw1GLsMtcsT-37" value="" style="edgeStyle=entityRelationEdgeStyle;fontSize=12;html=1;endArrow=ERzeroToMany;startArrow=ERmandOne;rounded=0;entryX=0;entryY=0.5;entryDx=0;entryDy=0;exitX=1;exitY=0.5;exitDx=0;exitDy=0;" parent="1" source="YF07dS71Wtw1GLsMtcsT-3" target="YF07dS71Wtw1GLsMtcsT-34" edge="1">
          <mxGeometry width="100" height="100" relative="1" as="geometry">
            <mxPoint x="310" y="240" as="sourcePoint" />
            <mxPoint x="410" y="140" as="targetPoint" />
          </mxGeometry>
        </mxCell>
        <mxCell id="YF07dS71Wtw1GLsMtcsT-38" value="&lt;font style=&quot;font-size: 15px;&quot;&gt;&lt;b&gt;Artists&lt;/b&gt;&lt;/font&gt;" style="rounded=0;whiteSpace=wrap;html=1;" parent="1" vertex="1">
          <mxGeometry x="960" y="247" width="160" height="30" as="geometry" />
        </mxCell>
        <mxCell id="YF07dS71Wtw1GLsMtcsT-39" value="&lt;span style=&quot;font-size: 15px;&quot;&gt;- first_name&amp;nbsp;&lt;/span&gt;&lt;div&gt;&lt;span style=&quot;font-size: 15px;&quot;&gt;&amp;nbsp; (TEXT, &lt;i&gt;NOT NULL&lt;/i&gt;)&lt;/span&gt;&lt;div&gt;&lt;span style=&quot;font-size: 15px;&quot;&gt;- surname&amp;nbsp;&lt;/span&gt;&lt;/div&gt;&lt;div&gt;&lt;span style=&quot;font-size: 15px;&quot;&gt;&amp;nbsp; (TEXT, &lt;i&gt;NOT NULL&lt;/i&gt;)&lt;/span&gt;&lt;/div&gt;&lt;/div&gt;" style="rounded=0;whiteSpace=wrap;html=1;align=left;spacingLeft=12;" parent="1" vertex="1">
          <mxGeometry x="960" y="277" width="160" height="93" as="geometry" />
        </mxCell>
        <mxCell id="YF07dS71Wtw1GLsMtcsT-46" value="&lt;font style=&quot;font-size: 15px;&quot;&gt;&lt;b&gt;Viewers&lt;/b&gt;&lt;/font&gt;" style="rounded=0;whiteSpace=wrap;html=1;" parent="1" vertex="1">
          <mxGeometry x="-125" y="190" width="160" height="30" as="geometry" />
        </mxCell>
        <mxCell id="YF07dS71Wtw1GLsMtcsT-47" value="&lt;span style=&quot;font-size: 15px;&quot;&gt;- first_name&amp;nbsp;&lt;/span&gt;&lt;div&gt;&lt;span style=&quot;font-size: 15px;&quot;&gt;&amp;nbsp; (TEXT, &lt;i&gt;NOT NULL&lt;/i&gt;)&lt;/span&gt;&lt;div&gt;&lt;span style=&quot;font-size: 15px;&quot;&gt;- surname&amp;nbsp;&lt;/span&gt;&lt;/div&gt;&lt;div&gt;&lt;span style=&quot;font-size: 15px;&quot;&gt;&amp;nbsp; (TEXT, &lt;i&gt;NOT NULL&lt;/i&gt;)&lt;/span&gt;&lt;/div&gt;&lt;/div&gt;" style="rounded=0;whiteSpace=wrap;html=1;align=left;spacingLeft=12;" parent="1" vertex="1">
          <mxGeometry x="-125" y="220" width="160" height="90" as="geometry" />
        </mxCell>
        <mxCell id="YF07dS71Wtw1GLsMtcsT-53" value="" style="edgeStyle=entityRelationEdgeStyle;fontSize=12;html=1;endArrow=ERzeroToMany;startArrow=ERmandOne;rounded=0;exitX=1;exitY=0.5;exitDx=0;exitDy=0;entryX=0;entryY=0.75;entryDx=0;entryDy=0;" parent="1" source="YF07dS71Wtw1GLsMtcsT-46" target="YF07dS71Wtw1GLsMtcsT-3" edge="1">
          <mxGeometry width="100" height="100" relative="1" as="geometry">
            <mxPoint x="20" y="520" as="sourcePoint" />
            <mxPoint x="120" y="420" as="targetPoint" />
          </mxGeometry>
        </mxCell>
        <mxCell id="YF07dS71Wtw1GLsMtcsT-54" value="" style="edgeStyle=entityRelationEdgeStyle;fontSize=12;html=1;endArrow=ERzeroToMany;startArrow=ERmandOne;rounded=0;exitX=0;exitY=0.5;exitDx=0;exitDy=0;entryX=1;entryY=0.75;entryDx=0;entryDy=0;" parent="1" source="YF07dS71Wtw1GLsMtcsT-46" target="YF07dS71Wtw1GLsMtcsT-8" edge="1">
          <mxGeometry width="100" height="100" relative="1" as="geometry">
            <mxPoint x="-180" y="510" as="sourcePoint" />
            <mxPoint x="-80" y="410" as="targetPoint" />
          </mxGeometry>
        </mxCell>
        <mxCell id="dVQCYlhDSaBFFCFDMpZ5-1" value="&lt;font style=&quot;font-size: 15px;&quot;&gt;&lt;b&gt;Engagements&lt;/b&gt;&lt;/font&gt;&lt;div&gt;&lt;font style=&quot;font-size: 15px;&quot;&gt;(movie-artist-entity)&lt;/font&gt;&lt;/div&gt;" style="rounded=0;whiteSpace=wrap;html=1;" parent="1" vertex="1">
          <mxGeometry x="420" y="240" width="170" height="60" as="geometry" />
        </mxCell>
        <mxCell id="dVQCYlhDSaBFFCFDMpZ5-2" value="&lt;div&gt;&lt;span style=&quot;font-size: 15px;&quot;&gt;- movie&lt;/span&gt;&lt;/div&gt;&lt;div&gt;&lt;span style=&quot;font-size: 15px;&quot;&gt;&amp;nbsp; (&lt;i&gt;FK_MOVIES&lt;/i&gt;)&lt;/span&gt;&lt;/div&gt;&lt;span style=&quot;font-size: 15px;&quot;&gt;- artist&lt;/span&gt;&lt;div&gt;&lt;span style=&quot;font-size: 15px; background-color: transparent; color: light-dark(rgb(0, 0, 0), rgb(255, 255, 255));&quot;&gt;&amp;nbsp; (&lt;/span&gt;&lt;i style=&quot;font-size: 15px; background-color: transparent; color: light-dark(rgb(0, 0, 0), rgb(255, 255, 255));&quot;&gt;FK_ARTISTS&lt;/i&gt;&lt;span style=&quot;font-size: 15px; background-color: transparent; color: light-dark(rgb(0, 0, 0), rgb(255, 255, 255));&quot;&gt;)&lt;/span&gt;&lt;div&gt;&lt;div&gt;&lt;span style=&quot;font-size: 15px;&quot;&gt;- job&amp;nbsp;&lt;/span&gt;&lt;/div&gt;&lt;div&gt;&lt;span style=&quot;font-size: 15px;&quot;&gt;&amp;nbsp; (TEXT, &lt;i&gt;NOT NULL&lt;/i&gt;)&lt;/span&gt;&lt;/div&gt;&lt;/div&gt;&lt;/div&gt;" style="rounded=0;whiteSpace=wrap;html=1;align=left;spacingLeft=12;" parent="1" vertex="1">
          <mxGeometry x="420" y="300" width="170" height="130" as="geometry" />
        </mxCell>
        <mxCell id="dVQCYlhDSaBFFCFDMpZ5-3" value="" style="edgeStyle=entityRelationEdgeStyle;fontSize=12;html=1;endArrow=ERzeroToMany;startArrow=ERmandOne;rounded=0;entryX=0;entryY=0.5;entryDx=0;entryDy=0;exitX=1.001;exitY=0.867;exitDx=0;exitDy=0;exitPerimeter=0;" parent="1" source="YF07dS71Wtw1GLsMtcsT-3" target="dVQCYlhDSaBFFCFDMpZ5-1" edge="1">
          <mxGeometry width="100" height="100" relative="1" as="geometry">
            <mxPoint x="330" y="230" as="sourcePoint" />
            <mxPoint x="380" y="190" as="targetPoint" />
          </mxGeometry>
        </mxCell>
        <mxCell id="dVQCYlhDSaBFFCFDMpZ5-4" value="&lt;font style=&quot;font-size: 15px;&quot;&gt;&lt;b&gt;Awardings&lt;/b&gt;&lt;/font&gt;&lt;div&gt;&lt;font style=&quot;font-size: 15px;&quot;&gt;(oscar-artist-entity)&lt;/font&gt;&lt;/div&gt;" style="rounded=0;whiteSpace=wrap;html=1;" parent="1" vertex="1">
          <mxGeometry x="690" y="80" width="170" height="57" as="geometry" />
        </mxCell>
        <mxCell id="dVQCYlhDSaBFFCFDMpZ5-5" value="&lt;font style=&quot;font-size: 15px;&quot;&gt;- award&amp;nbsp;&lt;/font&gt;&lt;div&gt;&lt;font style=&quot;font-size: 15px;&quot;&gt;&amp;nbsp; (&lt;i&gt;FK_OSCARS&lt;/i&gt;)&lt;/font&gt;&lt;div&gt;&lt;font style=&quot;font-size: 15px;&quot;&gt;- winner&lt;/font&gt;&lt;/div&gt;&lt;div&gt;&lt;font style=&quot;font-size: 15px;&quot;&gt;&amp;nbsp; (&lt;i&gt;FK_ARTISTS&lt;/i&gt;)&lt;/font&gt;&lt;/div&gt;&lt;/div&gt;" style="rounded=0;whiteSpace=wrap;html=1;align=left;spacingLeft=12;" parent="1" vertex="1">
          <mxGeometry x="690" y="137" width="170" height="93" as="geometry" />
        </mxCell>
        <mxCell id="dVQCYlhDSaBFFCFDMpZ5-6" value="" style="edgeStyle=entityRelationEdgeStyle;fontSize=12;html=1;endArrow=ERzeroToMany;startArrow=ERmandOne;rounded=0;exitX=1;exitY=0.5;exitDx=0;exitDy=0;entryX=0;entryY=0.25;entryDx=0;entryDy=0;" parent="1" source="YF07dS71Wtw1GLsMtcsT-34" target="dVQCYlhDSaBFFCFDMpZ5-4" edge="1">
          <mxGeometry width="100" height="100" relative="1" as="geometry">
            <mxPoint x="660" y="80" as="sourcePoint" />
            <mxPoint x="760" y="-20" as="targetPoint" />
          </mxGeometry>
        </mxCell>
        <mxCell id="dVQCYlhDSaBFFCFDMpZ5-7" value="" style="edgeStyle=entityRelationEdgeStyle;fontSize=12;html=1;endArrow=ERzeroToMany;startArrow=ERmandOne;rounded=0;entryX=1;entryY=0.5;entryDx=0;entryDy=0;exitX=0;exitY=0.75;exitDx=0;exitDy=0;" parent="1" source="YF07dS71Wtw1GLsMtcsT-38" target="dVQCYlhDSaBFFCFDMpZ5-1" edge="1">
          <mxGeometry width="100" height="100" relative="1" as="geometry">
            <mxPoint x="770" y="390" as="sourcePoint" />
            <mxPoint x="870" y="290" as="targetPoint" />
          </mxGeometry>
        </mxCell>
        <mxCell id="dVQCYlhDSaBFFCFDMpZ5-8" value="" style="edgeStyle=entityRelationEdgeStyle;fontSize=12;html=1;endArrow=ERzeroToMany;startArrow=ERmandOne;rounded=0;entryX=1;entryY=0.25;entryDx=0;entryDy=0;exitX=0.001;exitY=0.342;exitDx=0;exitDy=0;exitPerimeter=0;" parent="1" source="YF07dS71Wtw1GLsMtcsT-38" target="dVQCYlhDSaBFFCFDMpZ5-4" edge="1">
          <mxGeometry width="100" height="100" relative="1" as="geometry">
            <mxPoint x="980" y="200" as="sourcePoint" />
            <mxPoint x="1050" y="70" as="targetPoint" />
          </mxGeometry>
        </mxCell>
        <mxCell id="HbRORkEBURbOHCmS6T0R-1" value="&lt;font style=&quot;font-size: 15px;&quot;&gt;&lt;b&gt;Tagging&lt;/b&gt;&lt;/font&gt;&lt;div&gt;&lt;font style=&quot;font-size: 15px;&quot;&gt;(movie-category-entity)&lt;/font&gt;&lt;/div&gt;" style="rounded=0;whiteSpace=wrap;html=1;" vertex="1" parent="1">
          <mxGeometry x="420" y="-120" width="170" height="60" as="geometry" />
        </mxCell>
        <mxCell id="HbRORkEBURbOHCmS6T0R-2" value="&lt;div&gt;&lt;span style=&quot;font-size: 15px;&quot;&gt;- movie&lt;/span&gt;&lt;/div&gt;&lt;div&gt;&lt;span style=&quot;font-size: 15px;&quot;&gt;&amp;nbsp; (&lt;i&gt;FK_MOVIES&lt;/i&gt;)&lt;/span&gt;&lt;/div&gt;&lt;div&gt;&lt;div&gt;&lt;div&gt;&lt;span style=&quot;font-size: 15px;&quot;&gt;- category&amp;nbsp;&lt;/span&gt;&lt;/div&gt;&lt;div&gt;&lt;span style=&quot;font-size: 15px;&quot;&gt;&amp;nbsp; (&lt;i&gt;FK_CATEGORIES&lt;/i&gt;)&lt;/span&gt;&lt;/div&gt;&lt;/div&gt;&lt;/div&gt;" style="rounded=0;whiteSpace=wrap;html=1;align=left;spacingLeft=12;" vertex="1" parent="1">
          <mxGeometry x="420" y="-60" width="170" height="90" as="geometry" />
        </mxCell>
        <mxCell id="HbRORkEBURbOHCmS6T0R-3" value="" style="edgeStyle=entityRelationEdgeStyle;fontSize=12;html=1;endArrow=ERzeroToMany;startArrow=ERmandOne;rounded=0;entryX=0;entryY=0.5;entryDx=0;entryDy=0;exitX=0.999;exitY=0.153;exitDx=0;exitDy=0;exitPerimeter=0;" edge="1" parent="1" source="YF07dS71Wtw1GLsMtcsT-3" target="HbRORkEBURbOHCmS6T0R-1">
          <mxGeometry width="100" height="100" relative="1" as="geometry">
            <mxPoint x="290" y="40" as="sourcePoint" />
            <mxPoint x="390" y="-60" as="targetPoint" />
          </mxGeometry>
        </mxCell>
        <mxCell id="HbRORkEBURbOHCmS6T0R-4" value="&lt;font style=&quot;font-size: 15px;&quot;&gt;&lt;b&gt;Categories&lt;/b&gt;&lt;/font&gt;" style="rounded=0;whiteSpace=wrap;html=1;" vertex="1" parent="1">
          <mxGeometry x="690" y="-120" width="230" height="30" as="geometry" />
        </mxCell>
        <mxCell id="HbRORkEBURbOHCmS6T0R-5" value="&lt;span style=&quot;font-size: 15px;&quot;&gt;- category_name&lt;/span&gt;&lt;div&gt;&lt;span style=&quot;font-size: 15px;&quot;&gt;&amp;nbsp; (TEXT, &lt;i&gt;NOT NULL&lt;/i&gt;,&amp;nbsp;&lt;/span&gt;&lt;span style=&quot;font-size: 15px; background-color: transparent; color: light-dark(rgb(0, 0, 0), rgb(255, 255, 255));&quot;&gt;&lt;i&gt;UNIQUE&lt;/i&gt;)&lt;/span&gt;&lt;/div&gt;" style="rounded=0;whiteSpace=wrap;html=1;align=left;spacingLeft=12;" vertex="1" parent="1">
          <mxGeometry x="690" y="-91" width="230" height="51" as="geometry" />
        </mxCell>
        <mxCell id="HbRORkEBURbOHCmS6T0R-6" value="" style="edgeStyle=entityRelationEdgeStyle;fontSize=12;html=1;endArrow=ERzeroToMany;startArrow=ERmandOne;rounded=0;exitX=0;exitY=0.5;exitDx=0;exitDy=0;entryX=1;entryY=0.25;entryDx=0;entryDy=0;" edge="1" parent="1" source="HbRORkEBURbOHCmS6T0R-4" target="HbRORkEBURbOHCmS6T0R-1">
          <mxGeometry width="100" height="100" relative="1" as="geometry">
            <mxPoint x="650" y="-110" as="sourcePoint" />
            <mxPoint x="750" y="-210" as="targetPoint" />
          </mxGeometry>
        </mxCell>
      </root>
    </mxGraphModel>
  </diagram>
</mxfile>
